<?xml version="1.0" encoding="utf-8"?>
<!-- Generator: Adobe Illustrator 24.0.2, SVG Export Plug-In . SVG Version: 6.00 Build 0)  -->
<svg version="1.1" id="Layer_1" xmlns="http://www.w3.org/2000/svg" xmlns:xlink="http://www.w3.org/1999/xlink" x="0px" y="0px"
	 viewBox="0 0 572 572" style="enable-background:new 0 0 572 572;" xml:space="preserve">
<path d="M230.5,410.3c4.9,4.9,12.7,4.9,17.6,0c4.9-4.9,4.9-12.7,0-17.6L154,298.5l250.2,0c6.9,0,12.5-5.6,12.5-12.5
	c0-6.9-5.6-12.5-12.5-12.5l-250.1,0l94.2-94.2c2.3-2.3,3.6-5.5,3.6-8.8c0-3.3-1.3-6.5-3.6-8.8c-2.3-2.4-5.5-3.7-8.9-3.6
	c-3.3,0-6.5,1.3-8.9,3.6L115.2,277.2c-2.3,2.4-3.7,5.5-3.6,8.9c0,3.3,1.3,6.5,3.6,8.9L230.5,410.3z"/>
<path d="M286.2,17.9c-108.5,0-206.2,65.3-247.7,165.5C-3.1,283.6,19.9,399,96.6,475.6c104.7,104.7,274.4,104.7,379.1,0
	c104.7-104.7,104.7-274.4,0-379.1C425.6,46.1,357.3,17.8,286.2,17.9z M286.2,529.3C152.1,529.3,43,420.1,43,286.1
	S152.1,42.9,286.2,42.9S529.4,152,529.4,286.1S420.2,529.3,286.2,529.3z"/>
</svg>
